<svg width="81" height="80" viewBox="0 0 81 80" fill="none" xmlns="http://www.w3.org/2000/svg">
<path d="M31.7795 68.9999C36.8931 68.9999 41.0433 64.6692 41.0433 59.3332V49.6665H31.7795C26.6658 49.6665 22.5156 53.9972 22.5156 59.3332C22.5156 64.6692 26.6658 68.9999 31.7795 68.9999Z" fill="#0BCF83"/>
<path d="M22.5156 40.0001C22.5156 34.6641 26.6658 30.3335 31.7795 30.3335H41.0433V49.6668H31.7795C26.6658 49.6668 22.5156 45.3361 22.5156 40.0001Z" fill="#A259FF"/>
<path d="M22.5156 20.6667C22.5156 15.3307 26.6658 11 31.7795 11H41.0433V30.3333H31.7795C26.6658 30.3333 22.5156 26.0027 22.5156 20.6667Z" fill="#F24E1E"/>
<path d="M41.043 11H50.3069C55.4205 11 59.5707 15.3307 59.5707 20.6667C59.5707 26.0027 55.4205 30.3333 50.3069 30.3333H41.043V11Z" fill="#FF7262"/>
<path d="M59.5707 40.0001C59.5707 45.3361 55.4205 49.6668 50.3069 49.6668C45.1932 49.6668 41.043 45.3361 41.043 40.0001C41.043 34.6641 45.1932 30.3335 50.3069 30.3335C55.4205 30.3335 59.5707 34.6641 59.5707 40.0001Z" fill="#1ABCFE"/>
</svg>
