<?xml version="1.0" encoding="utf-8"?>
<!-- Generator: Adobe Illustrator 26.1.0, SVG Export Plug-In . SVG Version: 6.00 Build 0)  -->
<svg version="1.1" id="Layer_1" xmlns="http://www.w3.org/2000/svg" xmlns:xlink="http://www.w3.org/1999/xlink" x="0px" y="0px"
	 viewBox="0 0 850.4 850.4" style="enable-background:new 0 0 850.4 850.4;" xml:space="preserve">
<style type="text/css">
	.st0{fill:#000FFF;}
</style>
<g>
	<g>
		<path d="M115.9,335.4c0,0,99.1,24.5,126.5,67.7c0,0,145.2-135.4,55.9-330.6c0,0-82.4,28.4-117.7,68.7
			C180.6,141.1,226.7,268.6,115.9,335.4z"/>
		<path d="M345.8,116.7c0,0,29.9,97.6,7,143.3c0,0,190.8,55,312.3-122c0,0-66.8-56.1-119.4-65.7C545.7,72.4,460,177.5,345.8,116.7z"
			/>
		<path d="M648.5,202.1c0,0-67.9,76.2-118.9,80.4c0,0,52.1,191.6,266.4,203.6c0,0,13.2-86.2-5.9-136.2
			C790.2,349.9,655.9,331.3,648.5,202.1z"/>
		<path d="M727.2,509.9c0,0-99.7-21.7-128.4-64c0,0-141.3,139.5-46.4,332.1c0,0,81.6-30.8,115.7-72
			C668,705.9,618.3,579.8,727.2,509.9z"/>
		<path d="M190.5,637.9c0,0,71.5-72.8,122.6-74.5c0,0-43.7-185.1-257.2-207.5c0,0-13.5,60.7-0.2,135
			C55.7,490.9,184.2,500.4,190.5,637.9z"/>
	</g>
	<g>
		<path class="st0" d="M500.2,727.9c0,0-29.2-97.8-6-143.4c0,0-190.4-56.2-313.1,119.9c0,0,66.4,56.5,119,66.5
			C300,770.8,386.4,666.3,500.2,727.9z"/>
		<circle class="st0" cx="423.5" cy="426.1" r="91"/>
	</g>
</g>
</svg>
