<svg width="81" height="80" viewBox="0 0 81 80" fill="none" xmlns="http://www.w3.org/2000/svg">
<path d="M40.4791 10C31.3767 10 23.2205 14.0509 17.7148 20.4482L60.0526 62.7859C66.4499 57.2803 70.5007 49.124 70.5007 40.0217C70.5007 23.4411 57.0596 10 40.4791 10Z" fill="#5E6AD2"/>
<path d="M12.877 28.1917L52.3082 67.6228C53.7443 67.0064 55.1227 66.2813 56.433 65.4577L15.0422 24.0669C14.2186 25.3771 13.4934 26.7555 12.877 28.1917Z" fill="#5E6AD2"/>
<path d="M42.1061 69.9999L10.5 38.3938C10.6004 36.5141 10.8738 34.6805 11.3044 32.9082L47.5917 69.1956C45.8196 69.6262 43.9858 69.8995 42.1061 69.9999Z" fill="#5E6AD2"/>
<path d="M10.877 45.0615L35.4375 69.6221C22.8953 67.502 12.9971 57.6038 10.877 45.0615Z" fill="#5E6AD2"/>
</svg>
