<svg width="81" height="80" viewBox="0 0 81 80" fill="none" xmlns="http://www.w3.org/2000/svg">
<path fill-rule="evenodd" clip-rule="evenodd" d="M22.1734 21.2536C23.9923 22.7315 24.6746 22.6187 28.0901 22.3908L60.2895 20.4571C60.9724 20.4571 60.4045 19.7758 60.1767 19.6626L54.8291 15.7962C53.8044 15.0006 52.4393 14.0895 49.8229 14.3174L18.6442 16.5917C17.5072 16.7045 17.2801 17.2731 17.7329 17.7288L22.1734 21.2536ZM24.1066 28.7584V62.6413C24.1066 64.4623 25.0165 65.1436 27.0644 65.0309L62.4515 62.983C64.5004 62.8704 64.7286 61.6179 64.7286 60.1386V26.4831C64.7286 25.0062 64.1606 24.2098 62.9063 24.3235L25.9265 26.4831C24.5617 26.5978 24.1066 27.2805 24.1066 28.7584ZM59.0407 30.576C59.2675 31.6003 59.0407 32.6237 58.0145 32.7389L56.3095 33.0787V58.0932C54.8291 58.8889 53.464 59.3438 52.3265 59.3438C50.5052 59.3438 50.0491 58.7749 48.6849 57.0703L37.5321 39.56V56.5017L41.0613 57.2981C41.0613 57.2981 41.0613 59.3438 38.214 59.3438L30.3645 59.7992C30.1365 59.3438 30.3645 58.2078 31.1608 57.9802L33.2091 57.4124V35.0122L30.3651 34.7842C30.137 33.7599 30.7051 32.2829 32.2992 32.1683L40.7198 31.6006L52.3265 49.3389V33.6471L49.3672 33.3075C49.1401 32.0552 50.0491 31.1459 51.1871 31.0332L59.0407 30.576ZM16.0264 13.5219L48.4572 11.1334C52.4398 10.7918 53.4645 11.0206 55.9676 12.8391L66.3199 20.116C68.0281 21.3674 68.5974 21.708 68.5974 23.0721V62.983C68.5974 65.4844 67.6863 66.9636 64.501 67.1899L26.839 69.4645C24.4479 69.5785 23.3098 69.2377 22.0576 67.6449L14.434 57.7526C13.0681 55.9316 12.5 54.5694 12.5 52.9756V17.5001C12.5 15.4546 13.4114 13.7484 16.0264 13.5219Z" fill="black"/>
</svg>
