<svg width="81" height="80" viewBox="0 0 81 80" fill="none" xmlns="http://www.w3.org/2000/svg">
<path fill-rule="evenodd" clip-rule="evenodd" d="M32.5881 10.3311C29.308 10.3336 26.6533 12.9902 26.6557 16.2638C26.6533 19.5374 29.3104 22.194 32.5906 22.1964H38.5254V16.2662C38.5278 12.9926 35.8707 10.336 32.5881 10.3311C32.5906 10.3311 32.5906 10.3311 32.5881 10.3311ZM32.5881 26.1547H16.7668C13.4866 26.1572 10.8295 28.8138 10.832 32.0874C10.8271 35.361 13.4842 38.0176 16.7644 38.0225H32.5881C35.8683 38.02 38.5254 35.3634 38.523 32.0898C38.5254 28.8138 35.8683 26.1572 32.5881 26.1547Z" fill="#5BC3F1"/>
<path fill-rule="evenodd" clip-rule="evenodd" d="M70.1676 32.0869C70.17 28.8133 67.5129 26.1566 64.2328 26.1542C60.9526 26.1566 58.2955 28.8133 58.2979 32.0869V38.0219H64.2328C67.5129 38.0195 70.17 35.3629 70.1676 32.0869ZM54.3438 32.0869V16.2633C54.3462 12.9921 51.6916 10.3354 48.4114 10.3306C45.1313 10.333 42.4742 12.9897 42.4766 16.2633V32.0869C42.4717 35.3605 45.1288 38.0171 48.409 38.0219C51.6891 38.0195 54.3462 35.3629 54.3438 32.0869Z" fill="#5BB381"/>
<path fill-rule="evenodd" clip-rule="evenodd" d="M48.4114 69.6693C51.6915 69.6669 54.3486 67.0103 54.3462 63.7367C54.3486 60.4631 51.6915 57.8064 48.4114 57.804H42.4766V63.7367C42.4742 67.0079 45.1312 69.6645 48.4114 69.6693ZM48.4114 53.8433H64.2351C67.5153 53.8409 70.1724 51.1842 70.17 47.9106C70.1748 44.637 67.5177 41.9804 64.2376 41.9756H48.4138C45.1337 41.978 42.4766 44.6346 42.479 47.9082C42.4766 51.1842 45.1312 53.8409 48.4114 53.8433Z" fill="#F5BA3A"/>
<path fill-rule="evenodd" clip-rule="evenodd" d="M10.8301 47.9107C10.8277 51.1843 13.4848 53.8409 16.7649 53.8433C20.0451 53.8409 22.7022 51.1843 22.6998 47.9107V41.978H16.7649C13.4848 41.9804 10.8277 44.6371 10.8301 47.9107ZM26.6539 47.9107V63.7343C26.6491 67.0079 29.3061 69.6645 32.5863 69.6694C35.8665 69.667 38.5236 67.0103 38.5211 63.7367V47.9155C38.526 44.6419 35.8689 41.9853 32.5887 41.9804C29.3061 41.9804 26.6515 44.6371 26.6539 47.9107Z" fill="#DC325D"/>
</svg>
